<svg id="SvgjsSvg1001" width="288" height="288" xmlns="http://www.w3.org/2000/svg" version="1.1" xmlns:xlink="http://www.w3.org/1999/xlink" xmlns:svgjs="http://svgjs.com/svgjs"><defs id="SvgjsDefs1002"></defs><g id="SvgjsG1008"><svg xmlns="http://www.w3.org/2000/svg" version="1.0" viewBox="0 0 120 48" width="288" height="288"><g class="layer"><g style=""><path fill="#498183" d="m525,-10c-53,-18 -85,-55 -85,-99c0,-18 6,-21 40,-21c28,0 40,4 40,14c0,28 30,46 76,46c56,0 89,-28 79,-68c-9,-37 -9,-37 -104,-71c-104,-37 -122,-54 -129,-120c-6,-71 12,-109 62,-132c82,-37 214,-11 236,46c14,37 13,318 -2,349c-6,14 -22,33 -36,42c-30,20 -134,28 -177,14zm145,-310c0,-58 -3,-71 -19,-80c-30,-15 -97,-12 -115,6c-19,19 -21,64 -3,87c10,14 102,54 130,56c4,1 7,-30 7,-69z" style="--darkreader-inline-fill: #579b9e;" transform="scale(.1 -.1)" class="color0a3871 svgShape" data-darkreader-inline-fill=""></path></g></g></svg></g></svg>